<?xml version="1.0" encoding="utf-8"?>
<!-- Generator: Adobe Illustrator 25.2.0, SVG Export Plug-In . SVG Version: 6.00 Build 0)  -->
<svg version="1.1" id="Layer_1" xmlns="http://www.w3.org/2000/svg" xmlns:xlink="http://www.w3.org/1999/xlink" x="0px" y="0px"
	 viewBox="0 0 609.3 48" style="enable-background:new 0 0 609.3 48;" xml:space="preserve">
<style type="text/css">
	.st0{fill:#242938;}
	.st1{fill:#2489CA;}
	.st2{fill:#1070B3;}
	.st3{fill:#0877B9;}
	.st4{fill:#3C99D4;}
	.st5{fill:#D34A47;}
	.st6{fill:#FFFFFF;}
	.st7{fill:#8ED6FB;}
	.st8{fill:#1C78C0;}
	.st9{fill:url(#SVGID_1_);}
	.st10{fill:url(#SVGID_2_);}
	.st11{fill-rule:evenodd;clip-rule:evenodd;fill:#242938;}
	.st12{fill-rule:evenodd;clip-rule:evenodd;fill:#FFFFFF;}
	.st13{fill-rule:evenodd;clip-rule:evenodd;fill:#47B353;}
	.st14{clip-path:url(#SVGID_4_);}
	.st15{fill:#0ACF83;}
	.st16{fill:#A259FF;}
	.st17{fill:#F24E1E;}
	.st18{fill:#FF7262;}
	.st19{fill:#1ABCFE;}
	.st20{fill:#330000;}
	.st21{fill:#FF9A00;}
	.st22{fill:#001E36;}
	.st23{fill:#31A8FF;}
	.st24{fill:#49021F;}
	.st25{fill:#FF3366;}
	.st26{fill:url(#SVGID_5_);}
	.st27{fill:url(#SVGID_6_);}
	.st28{fill:url(#SVGID_7_);}
</style>
<g transform="translate(0, 0)">
	<path class="st0" d="M65.1,0h25.5c6.2,0,11.2,5,11.2,11.2v25.5c0,6.2-5,11.2-11.2,11.2H65.1c-6.2,0-11.3-5-11.3-11.2V11.2
		C53.9,5,58.9,0,65.1,0z"/>
	<path class="st1" d="M60.2,18.8c0,0-0.9-0.6,0.2-1.5l2.5-2.2c0,0,0.7-0.7,1.5-0.1l22.9,17.3v8.3c0,0,0,1.3-1.7,1.2L60.2,18.8z"/>
	<path class="st2" d="M66.1,24.1l-5.9,5.4c0,0-0.6,0.5,0,1.3l2.7,2.5c0,0,0.7,0.7,1.6-0.1l6.3-4.7L66.1,24.1z"/>
	<path class="st3" d="M76.4,24.2l10.8-8.3l-0.1-8.3c0,0-0.5-1.8-2-0.9L70.8,19.9L76.4,24.2z"/>
	<path class="st4" d="M85.5,41.8c0.6,0.6,1.4,0.4,1.4,0.4l8.4-4.2c1.1-0.7,0.9-1.6,0.9-1.6V11.6c0-1.1-1.1-1.5-1.1-1.5l-7.3-3.5
		c-1.6-1-2.6,0.2-2.6,0.2s1.3-1,2,0.9v32.8c0,0.2,0,0.4-0.1,0.6C86.9,41.5,86.4,41.9,85.5,41.8L85.5,41.8z"/>
</g>
<g transform="translate(300, 0)">
	<path class="st5" d="M-178.6,0h25.5c6.2,0,11.2,5,11.2,11.2v25.5c0,6.2-5,11.2-11.2,11.2h-25.5c-6.2,0-11.2-5-11.2-11.2V11.2
		C-189.9,5-184.9,0-178.6,0z"/>
	<path class="st6" d="M-160.9,43.4l0.4-6.6l1.1-1.9c0,0-2.5,1-6.7,1c-4.2,0-6.6-1-6.6-1l1.2,2l0.4,6.4c0,0.7,2.3,1.2,5.1,1.2
		C-163.2,44.6-160.9,44.1-160.9,43.4z M-162.2,12.6l0.8-3.3l4.6-4.8l-1.2-1l-4.9,5.2l-1,3.9c-0.7,0-1.5,0-2.2,0
		c-5.1,0-9.3,0.6-9.3,1.3c0,0.7,4.2,1.3,9.3,1.3c5.1,0,9.3-0.6,9.3-1.3C-156.7,13.2-159,12.8-162.2,12.6z"/>
	<path class="st6" d="M-162.7,14.4c0,0-0.2,0-0.7,0c-0.5,0-0.9,0-1.1-0.1c0,0-0.1-0.1-0.1-0.2c0-0.1,0.1-0.1,0.2-0.2l0.1,0.1
		c0,0-0.1,0-0.1,0c0,0.1,0.5,0.1,1,0.1c0.4,0,0.9,0,0.9-0.1c0,0,0,0-0.1-0.1l0.1-0.1c0.1,0,0.2,0.1,0.2,0.2
		C-162.3,14.4-162.5,14.4-162.7,14.4z"/>
	<path class="st6" d="M-156.8,4.5c0.1-0.1-0.1-0.5-0.4-0.8c-0.3-0.3-0.7-0.4-0.8-0.3c-0.1,0.1,0.1,0.5,0.4,0.8
		C-157.2,4.5-156.9,4.6-156.8,4.5z M-161.2,27.3c-0.1-1,2.3-2.6,1.7-2.6c-1.3,0.1-2,1.6-2.7,3.1c-0.2,0.6-1.1,3-1.6,2.7
		c-0.5-0.3,0.7-2.3,1.1-3.5c-0.4,0.3-1.9,1.5-2.3,0.4c-0.6,0.5-1.9,0.8-1.8-0.6c-0.3,0.6-1.1,1.4-2,1.1c-1.2-0.4,0.7-4.2,1.1-4
		c0.5,0.2-0.1,1-0.2,1.4c-0.3,0.7-0.7,1.6-0.4,1.8c0.4,0.3,1.6-1.2,1.6-1.2c0.2-0.3,0.8-2.1,1.3-1.9c0.5,0.2-1.2,2.6-0.6,3.1
		c0.1,0.1,0.7-0.1,1-0.4c0.2-0.2,0.1-0.7,0.8-2.4c0.7-1.7,1.3-3.7,1.8-3.6c0.5,0.2,0.1,1.2-0.1,1.6c-0.8,1.8-2.2,4.9-1.5,4.7
		c0.7-0.2,1-0.2,1.6-1c0.6-0.7,0.6-2,1-2c0.4,0,0.4,0.4,0.3,0.7c0.4-0.5,2-1.5,2.4-0.5c0.4,1.2-2.2,2.9-1.6,2.8
		c0.7-0.1,1.7-0.8,2.2-1.4l1.2-11.2c0,0-1.3,1-9.2,1c-8,0-9.1-1-9.1-1l1.1,10.2c0.6-1.6,1.9-4.8,4-4.7c1,0,2.2,1.9,1.1,2
		c-0.5,0-0.5-0.9-1.1-1.1c-0.4-0.1-0.9,0.2-1.3,0.6c-0.7,0.7-2.2,3.4-2,4.8c0.3,1.7,2.4-0.6,2.8-1.3c0.3-0.5,0.4-2,1-1.8
		c0.6,0.2,0,1.7-0.5,3c-0.5,1.5-0.7,3.1-1.3,2.9c-0.6-0.2,0.4-2.1,0.3-2.4c-0.5,0.5-1.5,1.8-2.8,1.1l0.7,6.4c0,0,1.8,1.4,7,1.4
		c5.3,0,7.1-1.4,7.1-1.4l0.8-7.4C-158.9,27.4-161,28.6-161.2,27.3z"/>
</g>
<g transform="translate(600, 0)">
	<path class="st0" d="M-422.4,0h25.5c6.2,0,11.2,5,11.2,11.2v25.5c0,6.2-5,11.2-11.2,11.2h-25.5c-6.2,0-11.2-5-11.2-11.2V11.2
		C-433.6,5-428.6,0-422.4,0z"/>
	<path class="st6" d="M-409.6,3.4l18.2,10.3v20.6l-18.2,10.3l-18.2-10.3V13.7L-409.6,3.4z"/>
	<path class="st7" d="M-394.6,33.6l-14.4,8.1v-6.3l9-4.9L-394.6,33.6z M-393.7,32.7v-17l-5.3,3v10.9L-393.7,32.7z M-424.6,33.6
		l14.4,8.1v-6.3l-9-4.9L-424.6,33.6L-424.6,33.6z M-425.6,32.7v-17l5.3,3v10.9L-425.6,32.7L-425.6,32.7z M-425,14.6l14.7-8.3v6.1
		l-9.4,5.2l-0.1,0L-425,14.6L-425,14.6z M-394.3,14.6L-409,6.3v6.1l9.4,5.2l0.1,0L-394.3,14.6L-394.3,14.6z"/>
	<path class="st8" d="M-410.3,34l-8.8-4.9v-9.6l8.8,5.1V34z M-409,34l8.8-4.9v-9.6l-8.8,5.1V34z M-418.5,18.4l8.9-4.9l8.9,4.9
		l-8.9,5.1L-418.5,18.4L-418.5,18.4z"/>
</g>
<g transform="translate(900, 0)">
	<path class="st0" d="M-666.2,0h25.5c6.2,0,11.2,5,11.2,11.2v25.5c0,6.2-5,11.2-11.2,11.2h-25.5c-6.2,0-11.2-5-11.2-11.2V11.2
		C-677.4,5-672.4,0-666.2,0z"/>
	
		<linearGradient id="SVGID_1_" gradientUnits="userSpaceOnUse" x1="-525.6052" y1="-1563.7968" x2="-408.8241" y2="-1722.3948" gradientTransform="matrix(0.1875 0 0 -0.1875 -564.2469 -292.0625)">
		<stop  offset="0" style="stop-color:#41D1FF"/>
		<stop  offset="1" style="stop-color:#BD34FE"/>
	</linearGradient>
	<path class="st9" d="M-634.8,10.8l-17.6,31.5c-0.4,0.6-1.3,0.7-1.7,0L-672,10.8c-0.4-0.7,0.2-1.6,1-1.4l17.6,3.1c0.1,0,0.2,0,0.3,0
		l17.2-3.1C-635,9.2-634.4,10.1-634.8,10.8z"/>
	
		<linearGradient id="SVGID_2_" gradientUnits="userSpaceOnUse" x1="-470.5366" y1="-1587.8945" x2="-449.4116" y2="-1732.8113" gradientTransform="matrix(0.1875 0 0 -0.1875 -564.2469 -292.0625)">
		<stop  offset="0" style="stop-color:#FFEA83"/>
		<stop  offset="8.333330e-02" style="stop-color:#FFDD35"/>
		<stop  offset="1" style="stop-color:#FFA800"/>
	</linearGradient>
	<path class="st10" d="M-645,5.3l-13,2.6c-0.2,0-0.4,0.2-0.4,0.4l-0.8,13.5c0,0.3,0.3,0.6,0.6,0.5l3.6-0.8c0.3-0.1,0.6,0.2,0.6,0.6
		l-1.1,5.3c-0.1,0.4,0.3,0.7,0.6,0.6l2.2-0.7c0.3-0.1,0.7,0.2,0.6,0.6l-1.7,8.3c-0.1,0.5,0.6,0.8,0.9,0.4l0.2-0.3l10.6-21.2
		c0.2-0.4-0.1-0.8-0.5-0.7l-3.7,0.7c-0.4,0.1-0.6-0.3-0.6-0.6l2.4-8.4C-644.4,5.5-644.7,5.2-645,5.3z"/>
</g>
<g transform="translate(1200, 0)">
	<path class="st0" d="M-909.9,0h25.5c6.2,0,11.2,5,11.2,11.2v25.5c0,6.2-5,11.2-11.2,11.2h-25.5c-6.2,0-11.2-5-11.2-11.2V11.2
		C-921.2,5-916.1,0-909.9,0z"/>
	<path class="st11" d="M-882.9,12.9l-11.8-7c-1.4-0.8-3.2-0.8-4.6,0l-11.8,7c-1.4,0.8-2.3,2.4-2.3,4.1V31c0,1.7,0.9,3.2,2.3,4.1
		l11.8,7c0.7,0.4,1.5,0.6,2.3,0.6c0.8,0,1.6-0.2,2.3-0.6l11.8-7c1.4-0.8,2.3-2.4,2.3-4.1V17C-880.7,15.3-881.5,13.7-882.9,12.9z"/>
	<path class="st12" d="M-898.9,41.4l-11.8-7c-1.2-0.7-1.9-2-1.9-3.3V17c0-1.4,0.7-2.7,1.9-3.3l11.8-7c0.6-0.3,1.2-0.5,1.9-0.5
		c0.7,0,1.3,0.2,1.9,0.5l11.8,7c1,0.6,1.6,1.6,1.8,2.7c-0.4-0.8-1.3-1.1-2.3-0.5l-11.2,6.9c-1.4,0.8-2.4,1.7-2.4,3.4V40
		c0,1,0.4,1.7,1,1.9c-0.2,0-0.4,0.1-0.6,0.1C-897.7,41.9-898.4,41.7-898.9,41.4z M-882.9,12.9l-11.8-7c-0.7-0.4-1.5-0.6-2.3-0.6
		c-0.8,0-1.6,0.2-2.3,0.6l-11.8,7c-1.4,0.8-2.3,2.4-2.3,4.1V31c0,1.7,0.9,3.2,2.3,4.1l11.8,7c0.7,0.4,1.5,0.6,2.3,0.6
		c0.8,0,1.6-0.2,2.3-0.6l11.8-7c1.4-0.8,2.3-2.4,2.3-4.1V17C-880.7,15.3-881.5,13.7-882.9,12.9z"/>
	<path class="st13" d="M-886,32.4l-2.9,1.8c-0.1,0-0.1,0.1-0.1,0.2v0.8c0,0.1,0.1,0.1,0.1,0.1l3-1.8c0.1,0,0.1-0.1,0.1-0.2v-0.7
		C-885.9,32.4-886,32.3-886,32.4z"/>
	<path class="st11" d="M-892.3,25.9c0.1,0,0.2,0,0.2,0.1l0,1c0.4-0.2,0.8-0.2,1.1-0.1c0.1,0,0.1,0.1,0.1,0.2l-0.2,0.9
		c0,0.1-0.1,0.1-0.1,0.2c0,0,0,0-0.1,0c0,0-0.1,0-0.1,0c-0.2,0-0.5-0.1-1.1,0.2c-0.6,0.3-0.8,0.8-0.8,1.2c0,0.5,0.2,0.6,1.1,0.6
		c1.1,0,1.6,0.5,1.6,1.6c0,1.1-0.6,2.2-1.4,3l0,1c0,0.1-0.1,0.3-0.2,0.3l-0.6,0.3c-0.1,0-0.2,0-0.2-0.1l0-1c-0.5,0.2-1,0.3-1.4,0.1
		c-0.1,0-0.1-0.1-0.1-0.2l0.2-0.9c0-0.1,0.1-0.1,0.1-0.2c0,0,0,0,0.1,0c0,0,0.1,0,0.1,0c0.4,0.1,0.8,0.1,1.3-0.2
		c0.6-0.3,0.9-0.9,0.9-1.4c0-0.5-0.3-0.7-1-0.7c-0.9,0-1.7-0.2-1.7-1.4c0-1,0.5-2.1,1.4-2.8l0-1c0-0.1,0.1-0.3,0.2-0.3L-892.3,25.9z
		"/>
</g>
<g transform="translate(1500, 0)">
	<path class="st0" d="M-1153.7,0h25.5c6.2,0,11.2,5,11.2,11.2v25.5c0,6.2-5,11.2-11.2,11.2h-25.5c-6.2,0-11.2-5-11.2-11.2V11.2
		C-1164.9,5-1159.9,0-1153.7,0z"/>
	<path class="st6" d="M-1122,16.6l-18-12c-0.6-0.4-1.3-0.4-1.9,0l-18,12c-0.5,0.3-0.7,0.9-0.7,1.4v12c0,0.5,0.3,1.1,0.7,1.4l18,12
		c0.6,0.4,1.3,0.4,1.9,0l18-12c0.5-0.3,0.7-0.9,0.7-1.4V18C-1121.2,17.5-1121.5,16.9-1122,16.6z M-1139.2,9.2l13.2,8.8l-5.9,4
		l-7.3-4.9L-1139.2,9.2L-1139.2,9.2z M-1142.6,9.2v7.9l-7.3,4.9l-5.9-4L-1142.6,9.2z M-1157.2,21.2l4.2,2.8l-4.2,2.8V21.2z
		 M-1142.6,38.8l-13.2-8.8l5.9-4l7.3,4.9V38.8z M-1140.9,28l-6-4l6-4l6,4L-1140.9,28z M-1139.2,38.8v-7.9l7.3-4.9l5.9,4
		L-1139.2,38.8L-1139.2,38.8z M-1124.6,26.8l-4.2-2.8l4.2-2.8V26.8z"/>
</g>
<g transform="translate(1800, 0)">
	<path class="st0" d="M-1397.4,0h25.5c6.2,0,11.2,5,11.2,11.2v25.5c0,6.2-5,11.2-11.2,11.2h-25.5c-6.2,0-11.2-5-11.2-11.2V11.2
		C-1408.7,5-1403.6,0-1397.4,0z"/>
	<g>
		<defs>
			<rect id="SVGID_3_" x="-1397.2" y="5.2" width="25" height="37.5"/>
		</defs>
		<clipPath id="SVGID_4_">
			<use xlink:href="#SVGID_3_"  style="overflow:visible;"/>
		</clipPath>
		<g class="st14">
			<path class="st15" d="M-1391,42.8c3.5,0,6.2-2.8,6.2-6.2v-6.3h-6.2c-3.5,0-6.2,2.8-6.2,6.3C-1397.2,40-1394.4,42.8-1391,42.8z"/>
			<path class="st16" d="M-1397.2,24c0-3.5,2.8-6.2,6.2-6.2h6.2v12.5h-6.2C-1394.4,30.2-1397.2,27.4-1397.2,24z"/>
			<path class="st17" d="M-1397.2,11.5c0-3.5,2.8-6.2,6.2-6.2h6.2v12.5h-6.2C-1394.4,17.8-1397.2,14.9-1397.2,11.5z"/>
			<path class="st18" d="M-1384.7,5.2h6.2c3.5,0,6.3,2.8,6.3,6.2s-2.8,6.3-6.3,6.3h-6.2V5.2z"/>
			<path class="st19" d="M-1372.2,24c0,3.4-2.8,6.2-6.3,6.2c-3.4,0-6.2-2.8-6.2-6.2s2.8-6.2,6.2-6.2
				C-1375,17.8-1372.2,20.5-1372.2,24z"/>
		</g>
	</g>
</g>
<g transform="translate(2100, 0)">
	<path class="st20" d="M-1641.2,0h25.5c6.2,0,11.2,5,11.2,11.2v25.5c0,6.2-5,11.2-11.2,11.2h-25.5c-6.2,0-11.2-5-11.2-11.2V11.2
		C-1652.4,5-1647.4,0-1641.2,0z"/>
	<path class="st21" d="M-1629.2,28.6h-7.4l-1.5,4.7c0,0.2-0.2,0.3-0.4,0.3h-3.8c-0.2,0-0.3-0.1-0.2-0.4l6.4-18.5
		c0.1-0.2,0.1-0.4,0.2-0.7c0.1-0.4,0.1-0.9,0.1-1.3c0-0.1,0.1-0.2,0.2-0.2h0.1h5.1c0.2,0,0.2,0.1,0.3,0.2l7.3,20.6
		c0.1,0.2,0,0.3-0.2,0.3h-4.2c-0.1,0-0.3-0.1-0.3-0.2L-1629.2,28.6L-1629.2,28.6z M-1635.5,24.5h5.1c-0.1-0.4-0.3-0.9-0.5-1.4
		c-0.2-0.5-0.4-1.1-0.5-1.7c-0.2-0.6-0.4-1.2-0.6-1.8c-0.2-0.6-0.4-1.2-0.5-1.8c-0.2-0.6-0.3-1.1-0.4-1.6h0
		c-0.2,0.9-0.4,1.7-0.7,2.6c-0.3,1-0.6,2-0.9,3C-1634.9,22.7-1635.2,23.7-1635.5,24.5L-1635.5,24.5z"/>
	<path class="st21" d="M-1618.4,16c-0.7,0-1.3-0.2-1.8-0.7c-0.5-0.5-0.7-1.2-0.7-1.8c0-0.7,0.2-1.3,0.7-1.8c0.5-0.5,1.1-0.7,1.8-0.7
		c0.8,0,1.4,0.2,1.8,0.7c0.4,0.5,0.7,1.1,0.7,1.8c0,0.7-0.2,1.3-0.7,1.8C-1617,15.7-1617.7,16-1618.4,16z M-1620.6,33.3V17.9
		c0-0.2,0.1-0.3,0.3-0.3h4c0.2,0,0.3,0.1,0.3,0.3v15.4c0,0.2-0.1,0.3-0.3,0.3h-3.9C-1620.5,33.6-1620.6,33.5-1620.6,33.3
		L-1620.6,33.3z"/>
</g>
<g transform="translate(2400, 0)">
	<path class="st22" d="M-1884.9,0h25.5c6.2,0,11.2,5,11.2,11.2v25.5c0,6.2-5,11.2-11.2,11.2h-25.5c-6.2,0-11.2-5-11.2-11.2V11.2
		C-1896.2,5-1891.1,0-1884.9,0z"/>
	<path class="st23" d="M-1885.3,33.4V12.8c0-0.1,0.1-0.2,0.2-0.2c0.3,0,0.7,0,1.1,0c0.5,0,1,0,1.5,0c0.5,0,1.1,0,1.7,0
		c0.6,0,1.2,0,1.8,0c1.6,0,3,0.2,4.1,0.6c1,0.3,1.9,0.9,2.7,1.6c0.6,0.6,1.1,1.4,1.5,2.3c0.3,0.8,0.5,1.7,0.5,2.6
		c0,1.7-0.4,3.1-1.2,4.3c-0.8,1.1-1.9,2-3.2,2.4c-1.4,0.5-2.9,0.7-4.5,0.7c-0.5,0-0.8,0-1,0c-0.2,0-0.5,0-0.9,0v6.4
		c0,0.1-0.1,0.3-0.2,0.3c0,0,0,0-0.1,0h-3.8C-1885.3,33.6-1885.3,33.6-1885.3,33.4z M-1881,16.4v6.7c0.3,0,0.5,0,0.8,0h1.1
		c0.8,0,1.6-0.1,2.3-0.4c0.6-0.2,1.2-0.6,1.6-1.1c0.4-0.5,0.6-1.2,0.6-2.1c0-0.6-0.1-1.2-0.5-1.8c-0.3-0.5-0.8-0.9-1.4-1.1
		c-0.7-0.3-1.5-0.4-2.4-0.4c-0.5,0-1,0-1.4,0C-1880.6,16.4-1880.8,16.4-1881,16.4z"/>
	<path class="st23" d="M-1857.8,21.9c-0.6-0.3-1.2-0.5-1.9-0.7c-0.7-0.2-1.5-0.3-2.2-0.3c-0.4,0-0.8,0-1.2,0.1
		c-0.3,0.1-0.5,0.2-0.6,0.4c-0.1,0.2-0.2,0.4-0.2,0.5c0,0.2,0.1,0.4,0.2,0.5c0.2,0.2,0.4,0.4,0.7,0.5c0.5,0.2,0.9,0.5,1.4,0.7
		c1.1,0.4,2.1,0.9,3.1,1.5c0.7,0.4,1.2,1,1.6,1.7c0.3,0.6,0.5,1.3,0.5,2.1c0,0.9-0.3,1.9-0.8,2.7c-0.6,0.8-1.3,1.4-2.2,1.8
		c-1,0.4-2.2,0.6-3.6,0.6c-0.9,0-1.8-0.1-2.7-0.3c-0.7-0.1-1.4-0.3-2-0.6c-0.1-0.1-0.2-0.2-0.2-0.4v-3.5c0-0.1,0-0.1,0.1-0.2
		c0.1,0,0.1,0,0.2,0c0.8,0.5,1.6,0.8,2.5,1c0.8,0.2,1.6,0.3,2.4,0.3c0.8,0,1.3-0.1,1.7-0.3c0.3-0.1,0.5-0.5,0.5-0.8
		c0-0.3-0.2-0.5-0.5-0.8c-0.3-0.3-1-0.6-2-0.9c-1-0.4-2-0.8-2.8-1.4c-0.6-0.4-1.1-1-1.5-1.7c-0.3-0.6-0.5-1.3-0.5-2
		c0-0.9,0.2-1.7,0.7-2.4c0.5-0.8,1.2-1.4,2.1-1.8c0.9-0.5,2.1-0.7,3.5-0.7c0.8,0,1.7,0.1,2.5,0.2c0.6,0.1,1.2,0.2,1.7,0.5
		c0.1,0,0.2,0.1,0.2,0.2c0,0.1,0,0.2,0,0.2v3.3c0,0.1,0,0.2-0.1,0.2C-1857.6,22-1857.7,22-1857.8,21.9z"/>
</g>
<g>
	<path class="st24" d="M568.8,0h31.8c4.8,0,8.7,3.9,8.7,8.7v30.6c0,4.8-3.9,8.7-8.7,8.7h-31.8c-4.8,0-8.7-3.9-8.7-8.7V8.7
		C560.1,3.9,564,0,568.8,0z"/>
	<g id="vlpa">
		<g id="vlpb">
			<path class="st25" d="M578,12.6v21.1c0,0.2-0.1,0.3-0.3,0.3h-4c-0.2,0-0.3-0.1-0.3-0.3V12.6c0-0.2,0.1-0.3,0.3-0.3h4
				C577.8,12.3,577.9,12.3,578,12.6C578,12.5,578,12.5,578,12.6z"/>
			<path class="st25" d="M589.8,34.3c-1.5,0-3-0.3-4.4-0.9c-1.3-0.6-2.4-1.6-3.1-2.8c-0.8-1.3-1.1-2.8-1.1-4.7c0-1.5,0.4-3,1.1-4.3
				c0.8-1.3,1.9-2.4,3.3-3.2c1.4-0.8,3.2-1.2,5.2-1.2c0.1,0,0.2,0,0.4,0s0.4,0,0.6,0v-6.5c0-0.1,0.1-0.2,0.2-0.2h4.2
				c0.1,0,0.2,0.1,0.2,0.1v0v19.5c0,0.4,0,0.8,0,1.2c0,0.4,0.1,0.8,0.1,1.2c0,0.1-0.1,0.3-0.2,0.3c-1.1,0.5-2.2,0.8-3.3,1
				C592,34.2,590.9,34.3,589.8,34.3L589.8,34.3z M591.9,30.2v-9c-0.2,0-0.4-0.1-0.6-0.1c-0.2,0-0.5,0-0.7,0c-0.8,0-1.6,0.2-2.3,0.5
				c-0.7,0.3-1.3,0.9-1.7,1.5c-0.5,0.7-0.7,1.5-0.7,2.6c0,0.7,0.1,1.4,0.3,2.1c0.2,0.6,0.5,1,0.9,1.5c0.4,0.4,0.9,0.7,1.4,0.8
				c0.6,0.2,1.1,0.3,1.7,0.3c0.3,0,0.6,0,0.9,0C591.4,30.3,591.6,30.2,591.9,30.2L591.9,30.2z"/>
		</g>
	</g>
</g>
<g>
	
		<linearGradient id="SVGID_5_" gradientUnits="userSpaceOnUse" x1="16.3242" y1="47.6993" x2="28.1249" y2="5.2163" gradientTransform="matrix(1 0 0 -1 0 50)">
		<stop  offset="0.2849" style="stop-color:#00CDD7"/>
		<stop  offset="0.9409" style="stop-color:#2086D7"/>
	</linearGradient>
	<polygon class="st26" points="6.1,42.6 0,6.1 11.4,1.4 18.6,5.7 25.3,2.1 39.2,7.5 31.3,46.9 	"/>
	
		<linearGradient id="SVGID_6_" gradientUnits="userSpaceOnUse" x1="20.0264" y1="42.3206" x2="39.9894" y2="13.0475" gradientTransform="matrix(1 0 0 -1 0 50)">
		<stop  offset="0.1398" style="stop-color:#FFF045"/>
		<stop  offset="0.3656" style="stop-color:#00CDD7"/>
	</linearGradient>
	<polygon class="st27" points="45.6,16.8 39.7,2.3 29.1,1.3 12.6,17.2 17,37.6 25.3,43.4 45.6,31.3 40.6,22 	"/>
	
		<linearGradient id="SVGID_7_" gradientUnits="userSpaceOnUse" x1="39.7964" y1="38.6932" x2="42.4177" y2="29.4077" gradientTransform="matrix(1 0 0 -1 0 50)">
		<stop  offset="0.2849" style="stop-color:#00CDD7"/>
		<stop  offset="0.9409" style="stop-color:#2086D7"/>
	</linearGradient>
	<polygon class="st28" points="36.5,14.6 40.6,22 45.6,16.8 42,7.7 	"/>
	<rect x="8.7" y="10.1" width="28.1" height="28.1"/>
	<rect x="11.4" y="32.9" class="st6" width="10.6" height="1.8"/>
	<path class="st6" d="M25.2,23.7l1.5-1.8c1,0.8,2.1,1.4,3.5,1.4c1,0,1.6-0.4,1.6-1.1v-0.1c0-0.7-0.4-1-2.3-1.5
		c-2.3-0.6-3.8-1.2-3.8-3.6V17c0-2.1,1.7-3.5,4-3.5c1.7,0,3.1,0.5,4.3,1.5l-1.3,2c-1-0.7-2-1.2-3-1.2c-1,0-1.5,0.5-1.5,1v0.1
		c0,0.8,0.5,1,2.5,1.6c2.3,0.7,3.6,1.5,3.6,3.5V22c0,2.3-1.8,3.6-4.2,3.6C28.3,25.6,26.6,24.9,25.2,23.7"/>
	<polygon class="st6" points="22.9,13.7 21.2,20.5 19.2,13.7 17.3,13.7 15.2,20.5 13.5,13.7 10.8,13.7 14.1,25.4 16.3,25.4 
		18.2,18.6 20.1,25.4 22.3,25.4 25.7,13.7 	"/>
</g>
</svg>
